<svg xmlns="http://www.w3.org/2000/svg" viewBox="0 0 30 100" width="30" height="100">
  <!-- RTU Type B DI 16 — two columns of 8 green LEDs, spring-cage -->
  <rect x="0.5" y="0.5" width="29" height="99" rx="1" fill="#3a3a3a" stroke="#666" stroke-width="0.5"/>
  <!-- Label strip -->
  <rect x="2" y="2" width="26" height="8" rx="0.5" fill="#444" stroke="#666" stroke-width="0.3"/>
  <text x="15" y="8" text-anchor="middle" font-size="3" fill="#bbb" font-family="sans-serif">DI 16</text>
  <!-- Status bar -->
  <rect x="3" y="12" width="24" height="5" rx="0.5" fill="#333" stroke="#555" stroke-width="0.3"/>
  <circle cx="8" cy="14.5" r="0.8" fill="#1e4a1e" stroke="#444" stroke-width="0.2"/>
  <text x="12" y="15.5" font-size="1.5" fill="#777" font-family="sans-serif">PWR</text>
  <circle cx="20" cy="14.5" r="0.8" fill="#1e4a1e" stroke="#444" stroke-width="0.2"/>
  <text x="24" y="15.5" font-size="1.5" fill="#777" font-family="sans-serif">BUS</text>
  <!-- Two columns of 8 green LEDs -->
  <circle cx="9" cy="22" r="1" fill="#1e3a1e" stroke="#444" stroke-width="0.2"/>
  <circle cx="9" cy="26" r="1" fill="#1e3a1e" stroke="#444" stroke-width="0.2"/>
  <circle cx="9" cy="30" r="1" fill="#1e3a1e" stroke="#444" stroke-width="0.2"/>
  <circle cx="9" cy="34" r="1" fill="#1e3a1e" stroke="#444" stroke-width="0.2"/>
  <circle cx="9" cy="38" r="1" fill="#1e3a1e" stroke="#444" stroke-width="0.2"/>
  <circle cx="9" cy="42" r="1" fill="#1e3a1e" stroke="#444" stroke-width="0.2"/>
  <circle cx="9" cy="46" r="1" fill="#1e3a1e" stroke="#444" stroke-width="0.2"/>
  <circle cx="9" cy="50" r="1" fill="#1e3a1e" stroke="#444" stroke-width="0.2"/>
  <circle cx="21" cy="22" r="1" fill="#1e3a1e" stroke="#444" stroke-width="0.2"/>
  <circle cx="21" cy="26" r="1" fill="#1e3a1e" stroke="#444" stroke-width="0.2"/>
  <circle cx="21" cy="30" r="1" fill="#1e3a1e" stroke="#444" stroke-width="0.2"/>
  <circle cx="21" cy="34" r="1" fill="#1e3a1e" stroke="#444" stroke-width="0.2"/>
  <circle cx="21" cy="38" r="1" fill="#1e3a1e" stroke="#444" stroke-width="0.2"/>
  <circle cx="21" cy="42" r="1" fill="#1e3a1e" stroke="#444" stroke-width="0.2"/>
  <circle cx="21" cy="46" r="1" fill="#1e3a1e" stroke="#444" stroke-width="0.2"/>
  <circle cx="21" cy="50" r="1" fill="#1e3a1e" stroke="#444" stroke-width="0.2"/>
  <!-- Spring-cage terminals (16 positions) -->
  <rect x="3" y="55" width="24" height="24" rx="1" fill="#1a1a1a" stroke="#555" stroke-width="0.4"/>
  <rect x="5" y="57" width="5" height="2.5" rx="0.3" fill="#444" stroke="#666" stroke-width="0.2"/>
  <rect x="12" y="57" width="5" height="2.5" rx="0.3" fill="#444" stroke="#666" stroke-width="0.2"/>
  <rect x="19" y="57" width="5" height="2.5" rx="0.3" fill="#444" stroke="#666" stroke-width="0.2"/>
  <rect x="5" y="61" width="5" height="2.5" rx="0.3" fill="#444" stroke="#666" stroke-width="0.2"/>
  <rect x="12" y="61" width="5" height="2.5" rx="0.3" fill="#444" stroke="#666" stroke-width="0.2"/>
  <rect x="19" y="61" width="5" height="2.5" rx="0.3" fill="#444" stroke="#666" stroke-width="0.2"/>
  <rect x="5" y="65" width="5" height="2.5" rx="0.3" fill="#444" stroke="#666" stroke-width="0.2"/>
  <rect x="12" y="65" width="5" height="2.5" rx="0.3" fill="#444" stroke="#666" stroke-width="0.2"/>
  <rect x="19" y="65" width="5" height="2.5" rx="0.3" fill="#444" stroke="#666" stroke-width="0.2"/>
  <rect x="5" y="69" width="5" height="2.5" rx="0.3" fill="#444" stroke="#666" stroke-width="0.2"/>
  <rect x="12" y="69" width="5" height="2.5" rx="0.3" fill="#444" stroke="#666" stroke-width="0.2"/>
  <rect x="19" y="69" width="5" height="2.5" rx="0.3" fill="#444" stroke="#666" stroke-width="0.2"/>
  <rect x="5" y="73" width="5" height="2.5" rx="0.3" fill="#444" stroke="#666" stroke-width="0.2"/>
  <rect x="12" y="73" width="5" height="2.5" rx="0.3" fill="#444" stroke="#666" stroke-width="0.2"/>
  <rect x="19" y="73" width="5" height="2.5" rx="0.3" fill="#444" stroke="#666" stroke-width="0.2"/>
  <!-- Backplane -->
  <rect x="3" y="84" width="24" height="13" rx="1" fill="#1a1a1a" stroke="#555" stroke-width="0.4"/>
  <rect x="5" y="86" width="20" height="9" rx="0.5" fill="#0a0a0a" stroke="#333" stroke-width="0.3"/>
</svg>